<mxfile host="app.diagrams.net" modified="2023-04-09T03:44:40.657Z" agent="Mozilla/5.0 (Windows NT 10.0; Win64; x64) AppleWebKit/537.36 (KHTML, like Gecko) Chrome/106.0.0.0 Safari/537.36 Edg/106.0.1370.52" etag="3n4rJuTx0jkbc1PxYLZJ" version="21.1.5" type="github">
  <diagram name="第 1 页" id="TQmPHCtk6EOPqZvVYFEK">
    <mxGraphModel dx="1000" dy="523" grid="1" gridSize="10" guides="1" tooltips="1" connect="1" arrows="1" fold="1" page="1" pageScale="1" pageWidth="1600" pageHeight="900" math="0" shadow="0">
      <root>
        <mxCell id="0" />
        <mxCell id="1" parent="0" />
        <mxCell id="l_i3C8mU76h80Paz9Acb-31" value="消息队列" style="rounded=1;whiteSpace=wrap;html=1;align=left;" vertex="1" parent="1">
          <mxGeometry x="210" y="320" width="610" height="60" as="geometry" />
        </mxCell>
        <mxCell id="l_i3C8mU76h80Paz9Acb-9" value="" style="edgeStyle=orthogonalEdgeStyle;rounded=1;orthogonalLoop=1;jettySize=auto;html=1;labelBackgroundColor=none;fontColor=default;align=center;" edge="1" parent="1" source="l_i3C8mU76h80Paz9Acb-6" target="l_i3C8mU76h80Paz9Acb-8">
          <mxGeometry relative="1" as="geometry">
            <mxPoint x="410" y="170" as="sourcePoint" />
          </mxGeometry>
        </mxCell>
        <mxCell id="l_i3C8mU76h80Paz9Acb-6" value="&lt;b&gt;&lt;font style=&quot;font-size: 17px;&quot;&gt;浏览器进程&lt;/font&gt;&lt;/b&gt;" style="whiteSpace=wrap;html=1;align=center;strokeWidth=2;labelBackgroundColor=none;rounded=1;" vertex="1" parent="1">
          <mxGeometry x="350" y="10" width="120" height="60" as="geometry" />
        </mxCell>
        <mxCell id="l_i3C8mU76h80Paz9Acb-13" value="" style="edgeStyle=orthogonalEdgeStyle;rounded=1;orthogonalLoop=1;jettySize=auto;html=1;" edge="1" parent="1" source="l_i3C8mU76h80Paz9Acb-8" target="l_i3C8mU76h80Paz9Acb-12">
          <mxGeometry relative="1" as="geometry" />
        </mxCell>
        <mxCell id="l_i3C8mU76h80Paz9Acb-8" value="&lt;font style=&quot;font-size: 15px;&quot;&gt;JS单线程&lt;/font&gt;" style="whiteSpace=wrap;html=1;align=center;strokeWidth=2;labelBackgroundColor=none;rounded=1;" vertex="1" parent="1">
          <mxGeometry x="350" y="130" width="120" height="60" as="geometry" />
        </mxCell>
        <mxCell id="l_i3C8mU76h80Paz9Acb-12" value="运行在浏览器的渲染主线程中，而渲染主线程只有一个" style="whiteSpace=wrap;html=1;align=center;strokeWidth=2;labelBackgroundColor=none;rounded=1;" vertex="1" parent="1">
          <mxGeometry x="490" y="130" width="180" height="60" as="geometry" />
        </mxCell>
        <mxCell id="l_i3C8mU76h80Paz9Acb-14" value="" style="whiteSpace=wrap;html=1;strokeWidth=2;labelBackgroundColor=none;rounded=1;fontSize=14;" vertex="1" parent="1">
          <mxGeometry x="300" y="220" width="600" height="60" as="geometry" />
        </mxCell>
        <mxCell id="l_i3C8mU76h80Paz9Acb-16" value="任务" style="rounded=1;whiteSpace=wrap;html=1;" vertex="1" parent="1">
          <mxGeometry x="310" y="330" width="100" height="40" as="geometry" />
        </mxCell>
        <mxCell id="l_i3C8mU76h80Paz9Acb-18" value="" style="edgeStyle=orthogonalEdgeStyle;rounded=1;orthogonalLoop=1;jettySize=auto;html=1;" edge="1" parent="1" source="l_i3C8mU76h80Paz9Acb-17" target="l_i3C8mU76h80Paz9Acb-14">
          <mxGeometry relative="1" as="geometry" />
        </mxCell>
        <mxCell id="l_i3C8mU76h80Paz9Acb-17" value="渲染主线程" style="rounded=1;whiteSpace=wrap;html=1;fontSize=14;" vertex="1" parent="1">
          <mxGeometry x="130" y="220" width="120" height="60" as="geometry" />
        </mxCell>
        <mxCell id="l_i3C8mU76h80Paz9Acb-19" value="计时线程" style="rounded=1;whiteSpace=wrap;html=1;fontSize=14;" vertex="1" parent="1">
          <mxGeometry x="130" y="420" width="120" height="60" as="geometry" />
        </mxCell>
        <mxCell id="l_i3C8mU76h80Paz9Acb-25" value="" style="edgeStyle=orthogonalEdgeStyle;rounded=1;orthogonalLoop=1;jettySize=auto;html=1;" edge="1" parent="1" source="l_i3C8mU76h80Paz9Acb-16" target="l_i3C8mU76h80Paz9Acb-24">
          <mxGeometry relative="1" as="geometry" />
        </mxCell>
        <mxCell id="l_i3C8mU76h80Paz9Acb-24" value="执行任务" style="rounded=1;whiteSpace=wrap;html=1;" vertex="1" parent="1">
          <mxGeometry x="310" y="230" width="100" height="40" as="geometry" />
        </mxCell>
        <mxCell id="l_i3C8mU76h80Paz9Acb-26" value="任务" style="rounded=1;whiteSpace=wrap;html=1;" vertex="1" parent="1">
          <mxGeometry x="420" y="330" width="100" height="40" as="geometry" />
        </mxCell>
        <mxCell id="l_i3C8mU76h80Paz9Acb-27" value="任务" style="rounded=1;whiteSpace=wrap;html=1;" vertex="1" parent="1">
          <mxGeometry x="540" y="330" width="100" height="40" as="geometry" />
        </mxCell>
        <mxCell id="l_i3C8mU76h80Paz9Acb-28" value="任务" style="rounded=1;whiteSpace=wrap;html=1;" vertex="1" parent="1">
          <mxGeometry x="660" y="330" width="100" height="40" as="geometry" />
        </mxCell>
      </root>
    </mxGraphModel>
  </diagram>
</mxfile>
